<!-- <?xml version="1.0" encoding="utf-8"?> -->
<!-- Generator: Adobe Illustrator 23.0.4, SVG Export Plug-In . SVG Version: 6.00 Build 0)  -->
<svg version="1.1" id="Layer_1" xmlns="http://www.w3.org/2000/svg" xmlns:xlink="http://www.w3.org/1999/xlink" x="0px" y="0px"
	 viewBox="0 0 320 512" style="enable-background:new 0 0 320 512;" xml:space="preserve">
<path d="M142.9,505L6.9,369c-9.4-9.4-9.4-24.6,0-33.9l22.6-22.6c9.4-9.4,24.6-9.4,33.9,0l96.5,96.3l96.4-96.4
	c9.4-9.4,24.6-9.4,33.9,0l22.7,22.6c9.4,9.4,9.4,24.6,0,33.9l-136,136C167.5,514.4,152.3,514.4,142.9,505L142.9,505z M143,7L7,143
	c-9.4,9.4-9.4,24.6,0,33.9l22.6,22.6c9.4,9.4,24.6,9.4,33.9,0l96.4-96.4l96.4,96.4c9.4,9.4,24.6,9.4,33.9,0l22.6-22.6
	c9.4-9.4,9.4-24.6,0-33.9l-136-136C167.6-2.4,152.4-2.4,143,7L143,7z"/>
</svg>
